<?xml version="1.0" encoding="utf-8"?>
<!-- Generator: Adobe Illustrator 21.1.0, SVG Export Plug-In . SVG Version: 6.00 Build 0)  -->
<svg version="1.1" id="Layer_1" xmlns="http://www.w3.org/2000/svg" xmlns:xlink="http://www.w3.org/1999/xlink" x="0px" y="0px"
	 viewBox="0 0 305 305" style="enable-background:new 0 0 305 305;" xml:space="preserve">
<style type="text/css">
	.st0{fill:none;stroke:#231F20;stroke-width:5;stroke-miterlimit:10;}
</style>
<g>
	<g>
		<path class="st0" d="M152.5,2.5c-82.8,0-150,67.2-150,150c0,82.8,67.2,150,150,150s150-67.2,150-150
			C302.5,69.7,235.3,2.5,152.5,2.5z M152.5,55.2l88.8,55.3H63.7L152.5,55.2z M242.4,198.9L242.4,198.9c0,8.9-7.2,16.1-16.1,16.1
			H78.7c-8.9,0-16.1-7.2-16.1-16.1v-84.9c0-0.9,0.1-1.9,0.3-2.7l84.8,52.9c0.1,0.1,0.2,0.1,0.3,0.2c0.1,0.1,0.2,0.1,0.3,0.2
			c0.6,0.3,1.2,0.6,1.8,0.7c0.1,0,0.1,0,0.2,0c0.7,0.2,1.4,0.3,2.1,0.3h0c0,0,0,0,0,0c0.7,0,1.4-0.1,2.1-0.3c0.1,0,0.1,0,0.2,0
			c0.6-0.2,1.2-0.4,1.8-0.7c0.1-0.1,0.2-0.1,0.3-0.2c0.1-0.1,0.2-0.1,0.3-0.2l84.8-52.9c0.2,0.9,0.3,1.8,0.3,2.7L242.4,198.9
			L242.4,198.9z"/>
	</g>
</g>
</svg>
