<?xml version="1.0" encoding="utf-8"?>
<!-- Generator: Adobe Illustrator 21.1.0, SVG Export Plug-In . SVG Version: 6.00 Build 0)  -->
<svg version="1.1" id="Capa_1" xmlns="http://www.w3.org/2000/svg" xmlns:xlink="http://www.w3.org/1999/xlink" x="0px" y="0px"
	 viewBox="0 0 50.7 50.7" style="enable-background:new 0 0 50.7 50.7;" xml:space="preserve">
<style type="text/css">
	.st0{fill:none;stroke:#231F20;stroke-miterlimit:10;}
</style>
<g>
	<path class="st0" d="M25.3,0.5C11.6,0.5,0.5,11.6,0.5,25.3c0,13.7,11.1,24.8,24.8,24.8C39,50.2,50.2,39,50.2,25.3
		C50.2,11.6,39,0.5,25.3,0.5z M31.5,26.2h-4c0,6.5,0,14.4,0,14.4h-6c0,0,0-7.9,0-14.4h-2.8v-5.1h2.8v-3.3c0-2.4,1.1-6,6-6l4.4,0v4.9
		c0,0-2.7,0-3.2,0s-1.3,0.3-1.3,1.4v3H32L31.5,26.2z"/>
</g>
</svg>
