<?xml version="1.0" encoding="utf-8"?>
<!-- Generator: Adobe Illustrator 21.1.0, SVG Export Plug-In . SVG Version: 6.00 Build 0)  -->
<svg version="1.1" id="Layer_1" xmlns="http://www.w3.org/2000/svg" xmlns:xlink="http://www.w3.org/1999/xlink" x="0px" y="0px"
	 viewBox="0 0 519 519" style="enable-background:new 0 0 519 519;" xml:space="preserve">
<style type="text/css">
	.st0{fill:none;stroke:#FFFFFF;stroke-width:7;stroke-miterlimit:10;}
	.st1{fill:#FFFFFF;stroke:#FFFFFF;stroke-width:0.25;stroke-miterlimit:10;}
</style>
<circle class="st0" cx="259.5" cy="259.5" r="256"/>
<g>
	<path class="st1" d="M109.9,365.5v-192h50.5c20.7,0,36.3,4.2,46.9,12.6c10.6,8.4,15.9,20.6,15.9,36.6c0,11.6-2.9,21.2-8.8,28.9
		c-5.9,7.6-14.2,12.5-24.9,14.6c12.1,1.6,22.2,6.8,30.3,15.8c8.1,8.9,12.1,19.1,12.1,30.7c0,16.3-5.3,29.2-15.9,38.7
		c-10.6,9.4-25.3,14.2-44.2,14.2H109.9z M117,263.6h46c17.5,0,30.7-3.4,39.6-10.1c8.9-6.7,13.3-17.2,13.3-31.3
		c0-27.2-18-41.1-53.9-41.5h-45V263.6z M117,270.7v87.7h55.5c16.3,0,29-4,38.3-12.1c9.3-8,13.9-19.2,13.9-33.4
		c0-12.1-4.5-22.1-13.4-30c-9-7.9-21-11.9-36-12.2H117z"/>
	<path class="st1" d="M306.8,284.4v81.1h-7.1v-192h60c19.6,0,34.8,4.9,45.7,14.8c10.9,9.9,16.3,23.6,16.3,41.2
		c0,17.4-5.3,30.8-15.9,40.3c-10.6,9.5-25.6,14.3-45.2,14.5H306.8z M306.8,277.3h52.9c17.3,0,30.8-4.2,40.4-12.5
		c9.6-8.3,14.4-20,14.4-34.9c0-15.5-4.8-27.5-14.4-36.2c-9.6-8.7-23.1-13-40.4-13h-52.9V277.3z"/>
</g>
</svg>
