<?xml version="1.0" encoding="utf-8"?>
<!-- Generator: Adobe Illustrator 21.1.0, SVG Export Plug-In . SVG Version: 6.00 Build 0)  -->
<svg version="1.1" id="Capa_1" xmlns="http://www.w3.org/2000/svg" xmlns:xlink="http://www.w3.org/1999/xlink" x="0px" y="0px"
	 viewBox="0 0 516 516" style="enable-background:new 0 0 516 516;" xml:space="preserve">
<style type="text/css">
	.st0{fill:none;stroke:#FFFFFF;stroke-width:4;stroke-miterlimit:10;}
</style>
<circle class="st0" cx="258" cy="258" r="256"/>
<g>
	<path class="st0" d="M95.8,366.1V145.4c73.1,0,109.4-0.8,124.5,3.3c12.6,3.3,23.2,10.5,31.8,21.6c16.5,21.5,15.8,57.7,5.4,77.2
		c-9.4,17.6-25.2,28.6-41.9,32.2c-19.6,3.9-48.6,3.2-75.3,3.2v83.3L95.8,366.1L95.8,366.1z M140.4,182.7v62.6
		c45.2,0,62.8,1.5,73.6-14.3c7.2-10.5,7-27-2-37C200.6,181.5,188.2,182.7,140.4,182.7z"/>
	<path class="st0" d="M270.8,320.5l42.5-6.5c4,18,16.1,25.1,34.2,25.1c13.8,0,30.3-3.5,30.3-17.3c0-9.3-7.8-11.4-17.2-13.6
		c-34.1-7.5-55.8-14.4-64.9-20.6c-12.6-8.6-19-20.6-19-36c0-13.9,5.5-25.5,16.4-34.9c10.9-9.4,27.9-14.2,50.9-14.2
		c34.9,0,61,8.4,70.8,42.3l-39.9,7.4c-1.7-6.2-4.9-11-9.7-14.3c-10.9-7.6-35.9-5.7-44.3-0.3c-6,4.1-6.7,11.7-0.6,16.3
		c12.3,9,64.6,12.3,86.7,30.7c8.8,7.5,13.3,18,13.3,31.5c0,14.7-6.1,27.3-18.4,37.8c-12.2,10.5-30.4,15.8-54.4,15.8
		c-21.8,0-39-4.4-51.7-13.3C283.1,347.6,274.8,335.6,270.8,320.5z"/>
</g>
</svg>
