<?xml version="1.0" encoding="iso-8859-1"?>
<!-- Generator: Adobe Illustrator 19.0.0, SVG Export Plug-In . SVG Version: 6.00 Build 0)  -->
<svg version="1.1" id="Layer_1" xmlns="http://www.w3.org/2000/svg" xmlns:xlink="http://www.w3.org/1999/xlink" x="0px" y="0px"
	 viewBox="0 0 512 512" style="enable-background:new 0 0 512 512;" xml:space="preserve">
<path style="fill:#FFFFFF;" d="M372.817,508H94.315c-15.735-0.04-28.477-12.783-28.517-28.517V32.517
	C65.846,16.782,78.589,4.04,94.315,4h323.378c15.735,0.04,28.477,12.783,28.517,28.517v402.306"/>
<path style="fill:#C7D5DD;" d="M372.817,512H94.315c-17.95-0.024-32.493-14.567-32.517-32.517V32.517
	C61.822,14.567,76.373,0.024,94.315,0h323.378c17.942,0.024,32.485,14.567,32.509,32.509v402.314h-7.999V32.517
	c-0.008-13.535-10.975-24.502-24.51-24.518H94.315C80.78,8.015,69.813,18.982,69.797,32.517v446.966
	c0.016,13.535,10.983,24.502,24.518,24.518h278.502L372.817,512L372.817,512z"/>
<path style="fill:#CFDCE5;" d="M372.817,450.246v61.706l77.129-77.129h-61.682C379.752,434.839,372.849,441.727,372.817,450.246z"/>
<g>
	<path style="fill:#415E72;" d="M145.582,359.166h-19.694l19.998-95.535h38.828c5.567-0.216,11.127,0.616,16.39,2.448
		c3.976,1.592,7.319,4.424,9.543,8.079c2.424,4.064,3.64,8.735,3.512,13.463c0,4.832-0.952,9.607-2.8,14.071
		c-1.552,4.064-3.888,7.783-6.871,10.943c-2.528,2.6-5.511,4.712-8.799,6.223c-4.048,1.648-8.295,2.72-12.639,3.2
		c-5.759,0.552-11.551,0.768-17.334,0.648h-12.511L145.582,359.166z M156.461,306.907h6.063c6.991,0.384,13.999-0.272,20.798-1.952
		c3.304-1.192,6.151-3.384,8.159-6.263c1.96-2.76,3.008-6.071,2.992-9.455c0.088-2-0.448-3.984-1.528-5.671
		c-1.056-1.496-2.56-2.616-4.296-3.2c-4.056-0.896-8.207-1.232-12.351-1.008h-14.031L156.461,306.907z"/>
	<path style="fill:#415E72;" d="M217.968,328.209l18.702-0.976c-0.224,4.24,0.84,8.439,3.064,12.055
		c4.312,3.912,10.111,5.767,15.895,5.088c4.904,0.408,9.799-0.808,13.943-3.456c2.68-1.936,4.28-5.04,4.304-8.343
		c0.016-2.816-1.28-5.479-3.512-7.199c-4.264-2.824-8.823-5.16-13.599-6.967c-5.583-2.296-10.999-4.984-16.206-8.039
		c-3.336-2.08-6.111-4.96-8.055-8.375c-2.016-3.696-3.024-7.847-2.928-12.055c-0.176-7.623,3.024-14.943,8.735-19.998
		c7.127-5.735,16.15-8.575,25.278-7.951c9.343-0.592,18.59,2.208,26.03,7.887c6.159,5.272,9.831,12.879,10.135,20.982l-18.83,0.84
		c-0.216-4.016-1.992-7.783-4.952-10.495c-3.6-2.664-8.031-3.952-12.495-3.632c-4.088-0.368-8.175,0.64-11.623,2.864
		c-2.232,1.72-3.528,4.384-3.496,7.199c-0.048,2.632,1.136,5.144,3.2,6.775c4.392,3.072,9.135,5.591,14.143,7.503
		c7.535,2.768,14.615,6.663,20.974,11.567c4.496,4.392,6.927,10.471,6.711,16.75c0.048,8.327-3.616,16.246-9.999,21.598
		c-7.855,6.375-17.814,9.559-27.909,8.935c-7.327,0.176-14.607-1.24-21.342-4.144c-5.447-2.24-9.951-6.303-12.743-11.495
		C218.855,339.864,217.68,334.049,217.968,328.209z"/>
	<path style="fill:#415E72;" d="M304.271,359.166l19.998-95.519h25.742c7.159,0,11.743,0.112,13.751,0.328
		c3.624,0.312,7.183,1.12,10.583,2.4c3.096,1.208,5.959,2.944,8.471,5.12c2.608,2.272,4.832,4.944,6.583,7.919
		c1.936,3.32,3.376,6.903,4.264,10.647c1.032,4.32,1.544,8.751,1.504,13.191c0.184,9.471-1.84,18.846-5.895,27.405
		c-3.456,7.359-8.519,13.855-14.823,18.99c-5.224,3.96-11.255,6.719-17.662,8.079c-6.207,1.144-12.519,1.624-18.83,1.44
		L304.271,359.166z M327.141,343.792h10.007c5.255,0.192,10.519-0.264,15.671-1.336c3.32-0.936,6.367-2.648,8.895-4.992
		c4.176-3.976,7.495-8.767,9.751-14.079c2.792-6.543,4.16-13.615,4-20.726c0.344-5.296-0.8-10.591-3.288-15.279
		c-1.856-3.128-4.72-5.527-8.119-6.807c-3.944-0.968-7.999-1.36-12.055-1.168h-11.407L327.141,343.792z"/>
</g>
<rect x="105.81" y="107.342" style="fill:#25B6D2;" width="76.033" height="76.033"/>
<rect x="181.851" y="107.342" style="fill:#E04F5F;" width="76.033" height="76.033"/>
<rect x="257.9" y="107.342" style="fill:#FFD07D;" width="76.033" height="76.033"/>
<rect x="333.917" y="107.342" style="fill:#CFDCE5;" width="76.033" height="76.033"/>
<g>
</g>
<g>
</g>
<g>
</g>
<g>
</g>
<g>
</g>
<g>
</g>
<g>
</g>
<g>
</g>
<g>
</g>
<g>
</g>
<g>
</g>
<g>
</g>
<g>
</g>
<g>
</g>
<g>
</g>
</svg>
