<?xml version="1.0" encoding="utf-8"?>
<!-- Generator: Adobe Illustrator 21.1.0, SVG Export Plug-In . SVG Version: 6.00 Build 0)  -->
<svg version="1.1" id="Layer_1" xmlns="http://www.w3.org/2000/svg" xmlns:xlink="http://www.w3.org/1999/xlink" x="0px" y="0px"
	 viewBox="0 0 516 516" style="enable-background:new 0 0 516 516;" xml:space="preserve">
<style type="text/css">
	.st0{fill:none;stroke:#FFFFFF;stroke-width:4;stroke-miterlimit:10;}
	.st1{fill:none;stroke:#FFFFFF;stroke-width:4;stroke-miterlimit:10;stroke-dasharray:5.8529,5.8529;}
	.st2{fill:none;stroke:#FFFFFF;stroke-width:4;stroke-miterlimit:10;stroke-dasharray:5.7779,5.7779;}
	.st3{fill:none;stroke:#FFFFFF;stroke-width:4;stroke-miterlimit:10;stroke-dasharray:6.1984,6.1984;}
	.st4{fill:none;stroke:#FFFFFF;stroke-width:4;stroke-miterlimit:10;stroke-dasharray:5.5606,5.5606;}
</style>
<circle class="st0" cx="258" cy="258" r="256"/>
<path class="st0" d="M398,140.7c-0.1-0.1-0.1-0.3-0.2-0.4c0-0.1-0.1-0.2-0.1-0.2c-3.4-6-9.8-10.1-17.2-10.1H257.9h0H135.5
	c-10.9,0-19.7,8.8-19.7,19.7v216.6c0,5.4,2.2,10.4,5.8,13.9c3.6,3.6,8.5,5.8,13.9,5.8h122.4v0h122.7c10.2,0,18.6-7.7,19.6-17.7
	c0.1-0.7,0.1-1.3,0.1-2V149.7v0C400.2,146.4,399.4,143.4,398,140.7z"/>
<path class="st0" d="M380.5,130H257.9H135.5c-10.9,0-19.7,8.8-19.7,19.7v20.7h284.4v0v-20.7C400.2,138.8,391.4,130,380.5,130z"/>
<path class="st0" d="M400,369H257.9H116c1.3,9.6,9.5,17,19.5,17h122.4h122.7h0C390.5,386,398.7,378.6,400,369L400,369z"/>
<path class="st0" d="M379.6,159.1c0.1-0.1,0.2-0.1,0.3-0.2c1.6-1.3,2.7-3.4,2.7-5.7c0-2.5-1.3-4.8-3.2-6.1c-1.2-0.8-2.6-1.3-4.1-1.3
	H140.8c-4,0-7.3,3.3-7.3,7.3c0,4,3.3,7.3,7.3,7.3h117.1h117.4c0.3,0,0.5,0,0.7,0c0.3,0,0.5-0.1,0.8-0.1c0.9-0.2,1.8-0.6,2.5-1.1
	C379.4,159.3,379.5,159.2,379.6,159.1z"/>
<g>
	<g>
		<g>
			<polyline class="st0" points="154.8,257 154.8,260 157.8,260 			"/>
			<line class="st1" x1="163.6" y1="260" x2="254.3" y2="260"/>
			<polyline class="st0" points="257.3,260 260.3,260 260.3,257 			"/>
			<line class="st2" x1="260.3" y1="251.2" x2="260.3" y2="207.9"/>
			<polyline class="st0" points="260.3,205 260.3,202 257.3,202 			"/>
			<line class="st1" x1="251.4" y1="202" x2="160.7" y2="202"/>
			<polyline class="st0" points="157.8,202 154.8,202 154.8,205 			"/>
			<line class="st2" x1="154.8" y1="210.8" x2="154.8" y2="254.1"/>
		</g>
	</g>
	<g>
		<g>
			<polyline class="st0" points="154.8,339.8 154.8,342.8 157.8,342.8 			"/>
			<line class="st1" x1="163.6" y1="342.8" x2="254.3" y2="342.8"/>
			<polyline class="st0" points="257.3,342.8 260.3,342.8 260.3,339.8 			"/>
			<line class="st2" x1="260.3" y1="334.1" x2="260.3" y2="290.7"/>
			<polyline class="st0" points="260.3,287.8 260.3,284.8 257.3,284.8 			"/>
			<line class="st1" x1="251.4" y1="284.8" x2="160.7" y2="284.8"/>
			<polyline class="st0" points="157.8,284.8 154.8,284.8 154.8,287.8 			"/>
			<line class="st2" x1="154.8" y1="293.6" x2="154.8" y2="336.9"/>
		</g>
	</g>
	<g>
		<g>
			<polyline class="st0" points="294.3,202.5 291.3,202.5 291.3,205.5 			"/>
			<line class="st3" x1="291.3" y1="211.7" x2="291.3" y2="307.7"/>
			<polyline class="st0" points="291.3,310.8 291.3,313.8 294.3,313.8 			"/>
			<line class="st4" x1="299.9" y1="313.8" x2="352.7" y2="313.8"/>
			<polyline class="st0" points="355.5,313.8 358.5,313.8 358.5,310.8 			"/>
			<line class="st3" x1="358.5" y1="304.6" x2="358.5" y2="208.6"/>
			<polyline class="st0" points="358.5,205.5 358.5,202.5 355.5,202.5 			"/>
			<line class="st4" x1="349.9" y1="202.5" x2="297.1" y2="202.5"/>
		</g>
	</g>
</g>
</svg>
